<svg width="349" height="170" viewBox="0 0 349 170" fill="none" xmlns="http://www.w3.org/2000/svg">
<g filter="url(#filter0_d_9_4)">
<path d="M26.3877 20.4206C26.2711 18.3165 25.7524 16.681 24.8315 15.5142C23.9223 14.3282 22.6225 13.7352 20.9323 13.7352C19.8133 13.7352 18.8807 13.9743 18.1347 14.4525C17.3887 14.9308 16.8291 15.5907 16.4561 16.4323C16.0831 17.2548 15.8908 18.2017 15.8791 19.2729C15.8558 20.1528 15.9607 20.9275 16.1938 21.597C16.4386 22.2665 16.7883 22.8594 17.243 23.3759C17.7092 23.8732 18.2687 24.3132 18.9215 24.6958C19.5743 25.0783 20.3087 25.4131 21.1247 25.7L24.202 26.8477C25.9739 27.4789 27.5359 28.3206 28.8881 29.3726C30.2519 30.4247 31.3943 31.6776 32.3151 33.1314C33.2477 34.5851 33.9529 36.2588 34.4308 38.1525C34.9088 40.0462 35.1536 42.1695 35.1652 44.5223C35.1536 48.2332 34.5824 51.418 33.4517 54.0769C32.321 56.7357 30.6949 58.7729 28.5733 60.1884C26.4635 61.6039 23.9164 62.3116 20.9323 62.3116C17.9365 62.3116 15.3254 61.5752 13.099 60.1023C10.8725 58.6294 9.1415 56.3914 7.90588 53.3883C6.67026 50.3851 6.03497 46.5881 6 41.9973H14.288C14.3579 43.891 14.6668 45.4691 15.2147 46.7316C15.7625 47.9941 16.5144 48.9505 17.4703 49.6008C18.4378 50.2512 19.5568 50.5764 20.8274 50.5764C21.9931 50.5764 22.9839 50.3182 23.7999 49.8017C24.6275 49.2852 25.2628 48.5679 25.7058 47.6498C26.1487 46.7316 26.376 45.6795 26.3877 44.4936C26.376 43.3841 26.1662 42.4373 25.7582 41.653C25.3502 40.8496 24.7208 40.161 23.8698 39.5872C23.0305 38.9942 21.9581 38.449 20.6526 37.9517L16.9107 36.5171C13.81 35.3502 11.3679 33.4661 9.58446 30.8646C7.80097 28.2441 6.91506 24.7053 6.92671 20.2484C6.91506 16.614 7.50955 13.4292 8.7102 10.6938C9.91084 7.95847 11.5719 5.82567 13.6935 4.2954C15.815 2.76513 18.2338 2 20.9498 2C23.7241 2 26.1312 2.7747 28.1712 4.32409C30.2228 5.85436 31.8139 8.0063 32.9446 10.7799C34.0753 13.5535 34.6523 16.7671 34.6756 20.4206H26.3877Z" stroke="white" stroke-opacity="0.98" stroke-width="3" shape-rendering="crispEdges"/>
<path d="M46.1765 61.5656H36.8744L48.9566 2.80339H60.4793L72.5616 61.5656H63.2595L54.8491 17.6087H54.5694L46.1765 61.5656ZM44.9351 38.4395H64.3785V49.2278H44.9351V38.4395Z" stroke="white" stroke-opacity="0.98" stroke-width="3" shape-rendering="crispEdges"/>
<path d="M76.4171 61.5656V2.80339H91.2095C93.8906 2.80339 96.2044 3.66417 98.1511 5.38572C100.109 7.08813 101.619 9.46961 102.68 12.5301C103.741 15.5716 104.271 19.1103 104.271 23.1464C104.271 27.2016 103.729 30.7499 102.645 33.7913C101.572 36.8136 100.039 39.1568 98.0462 40.8209C96.0529 42.4851 93.6866 43.3172 90.9472 43.3172H81.82V32.1271H89.3386C90.6442 32.1271 91.7341 31.7541 92.6083 31.0081C93.4942 30.2621 94.1645 29.2196 94.6191 27.8806C95.0737 26.5225 95.301 24.9444 95.301 23.1464C95.301 21.3292 95.0737 19.7607 94.6191 18.4408C94.1645 17.1018 93.4942 16.0689 92.6083 15.342C91.7224 14.6151 90.6325 14.2517 89.3386 14.2517H85.0722V61.5656H76.4171Z" stroke="white" stroke-opacity="0.98" stroke-width="3" shape-rendering="crispEdges"/>
<path d="M39.5365 121.724H30.7939C30.6774 120.251 30.4384 118.922 30.077 117.736C29.7157 116.55 29.2378 115.536 28.6433 114.695C28.0488 113.853 27.3435 113.212 26.5276 112.772C25.7232 112.313 24.8315 112.084 23.8523 112.084C22.1155 112.084 20.6176 112.782 19.3587 114.178C18.1114 115.574 17.1497 117.592 16.4736 120.232C15.8092 122.872 15.4769 126.066 15.4769 129.815C15.4769 133.718 15.815 136.989 16.4911 139.628C17.1788 142.249 18.1405 144.229 19.3761 145.568C20.6234 146.888 22.098 147.547 23.7999 147.547C24.7557 147.547 25.6242 147.347 26.4052 146.945C27.1978 146.543 27.8914 145.96 28.4859 145.195C29.0921 144.41 29.5875 143.464 29.9721 142.354C30.3685 141.226 30.6424 139.954 30.7939 138.538L39.5365 138.624C39.385 141.226 38.9245 143.789 38.1552 146.314C37.3975 148.839 36.3542 151.144 35.0253 153.229C33.6965 155.294 32.0762 156.939 30.1645 158.164C28.2644 159.388 26.0846 160 23.625 160C20.3844 160 17.4819 158.833 14.9174 156.5C12.3646 154.147 10.348 150.723 8.86756 146.228C7.38715 141.732 6.64695 136.262 6.64695 129.815C6.64695 123.35 7.39881 117.87 8.90253 113.375C10.4063 108.88 12.4404 105.465 15.0049 103.131C17.5693 100.798 20.4427 99.631 23.625 99.631C25.7932 99.631 27.7982 100.128 29.6399 101.123C31.4817 102.099 33.102 103.533 34.5008 105.427C35.8996 107.301 37.0361 109.606 37.9104 112.342C38.7847 115.077 39.3267 118.205 39.5365 121.724Z" stroke="white" stroke-opacity="0.98" stroke-width="3" shape-rendering="crispEdges"/>
<path d="M78.288 129.815C78.288 136.281 77.5303 141.761 76.0149 146.256C74.4995 150.751 72.4479 154.166 69.8601 156.5C67.284 158.833 64.3931 160 61.1875 160C57.9702 160 55.0735 158.824 52.4974 156.471C49.9212 154.118 47.8755 150.704 46.3601 146.228C44.8564 141.732 44.1045 136.262 44.1045 129.815C44.1045 123.35 44.8564 117.87 46.3601 113.375C47.8755 108.88 49.9212 105.465 52.4974 103.131C55.0735 100.798 57.9702 99.631 61.1875 99.631C64.3931 99.631 67.284 100.798 69.8601 103.131C72.4479 105.465 74.4995 108.88 76.0149 113.375C77.5303 117.87 78.288 123.35 78.288 129.815ZM69.4405 129.815C69.4405 125.99 69.1083 122.757 68.4438 120.117C67.7911 117.478 66.8469 115.479 65.6112 114.121C64.3873 112.763 62.9127 112.084 61.1875 112.084C59.474 112.084 57.9994 112.763 56.7638 114.121C55.5281 115.479 54.5781 117.478 53.9137 120.117C53.2609 122.757 52.9345 125.99 52.9345 129.815C52.9345 133.641 53.2609 136.874 53.9137 139.514C54.5781 142.153 55.5281 144.152 56.7638 145.51C57.9994 146.868 59.474 147.547 61.1875 147.547C62.9127 147.547 64.3873 146.868 65.6112 145.51C66.8469 144.152 67.7911 142.153 68.4438 139.514C69.1083 136.874 69.4405 133.641 69.4405 129.815Z" stroke="white" stroke-opacity="0.98" stroke-width="3" shape-rendering="crispEdges"/>
<path d="M113.818 100.434V159.197H106.474L92.2236 125.282H91.9963V159.197H83.3412V100.434H90.7899L104.883 134.292H105.18V100.434H113.818Z" stroke="white" stroke-opacity="0.98" stroke-width="3" shape-rendering="crispEdges"/>
<path d="M138.616 118.052C138.5 115.947 137.981 114.312 137.06 113.145C136.151 111.959 134.851 111.366 133.161 111.366C132.042 111.366 131.109 111.605 130.363 112.084C129.617 112.562 129.058 113.222 128.685 114.063C128.312 114.886 128.119 115.833 128.108 116.904C128.084 117.784 128.189 118.558 128.422 119.228C128.667 119.897 129.017 120.49 129.471 121.007C129.938 121.504 130.497 121.944 131.15 122.327C131.803 122.709 132.537 123.044 133.353 123.331L136.43 124.479C138.202 125.11 139.764 125.952 141.116 127.004C142.48 128.056 143.623 129.309 144.544 130.762C145.476 132.216 146.181 133.89 146.659 135.784C147.137 137.677 147.382 139.8 147.394 142.153C147.382 145.864 146.811 149.049 145.68 151.708C144.549 154.367 142.923 156.404 140.802 157.819C138.692 159.235 136.145 159.943 133.161 159.943C130.165 159.943 127.554 159.206 125.327 157.733C123.101 156.26 121.37 154.022 120.134 151.019C118.899 148.016 118.263 144.219 118.228 139.628H126.516C126.586 141.522 126.895 143.1 127.443 144.363C127.991 145.625 128.743 146.581 129.699 147.232C130.666 147.882 131.785 148.207 133.056 148.207C134.222 148.207 135.212 147.949 136.028 147.433C136.856 146.916 137.491 146.199 137.934 145.281C138.377 144.363 138.604 143.311 138.616 142.125C138.604 141.015 138.395 140.068 137.987 139.284C137.579 138.481 136.949 137.792 136.098 137.218C135.259 136.625 134.187 136.08 132.881 135.583L129.139 134.148C126.038 132.981 123.596 131.097 121.813 128.496C120.029 125.875 119.143 122.336 119.155 117.879C119.143 114.245 119.738 111.06 120.939 108.325C122.139 105.589 123.8 103.457 125.922 101.926C128.043 100.396 130.462 99.631 133.178 99.631C135.953 99.631 138.36 100.406 140.4 101.955C142.451 103.485 144.042 105.637 145.173 108.411C146.304 111.184 146.881 114.398 146.904 118.052H138.616Z" stroke="white" stroke-opacity="0.98" stroke-width="3" shape-rendering="crispEdges"/>
<path d="M173.429 100.434H182.067V138.337C182.067 142.718 181.431 146.534 180.161 149.785C178.89 153.018 177.118 155.524 174.845 157.303C172.572 159.063 169.932 159.943 166.925 159.943C163.882 159.943 161.224 159.063 158.951 157.303C156.678 155.524 154.912 153.018 153.653 149.785C152.394 146.534 151.765 142.718 151.765 138.337V100.434H160.42V137.103C160.42 139.131 160.688 140.939 161.224 142.526C161.772 144.114 162.536 145.357 163.515 146.256C164.494 147.155 165.631 147.605 166.925 147.605C168.218 147.605 169.349 147.155 170.317 146.256C171.296 145.357 172.059 144.114 172.607 142.526C173.155 140.939 173.429 139.131 173.429 137.103V100.434Z" stroke="white" stroke-opacity="0.98" stroke-width="3" shape-rendering="crispEdges"/>
<path d="M187.491 159.197V100.434H196.147V147.662H211.044V159.197H187.491Z" stroke="white" stroke-opacity="0.98" stroke-width="3" shape-rendering="crispEdges"/>
<path d="M209.977 111.969V100.434H240.244V111.969H229.386V159.197H220.853V111.969H209.977Z" stroke="white" stroke-opacity="0.98" stroke-width="3" shape-rendering="crispEdges"/>
<path d="M247.745 159.197H238.443L250.525 100.434H262.048L274.13 159.197H264.828L256.418 115.24H256.138L247.745 159.197ZM246.504 136.07H265.947V146.859H246.504V136.07Z" stroke="white" stroke-opacity="0.98" stroke-width="3" shape-rendering="crispEdges"/>
<path d="M308.462 100.434V159.197H301.119L286.868 125.282H286.641V159.197H277.986V100.434H285.435L299.528 134.292H299.825V100.434H308.462Z" stroke="white" stroke-opacity="0.98" stroke-width="3" shape-rendering="crispEdges"/>
<path d="M312.733 111.969V100.434H343V111.969H332.142V159.197H323.609V111.969H312.733Z" stroke="white" stroke-opacity="0.98" stroke-width="3" shape-rendering="crispEdges"/>
</g>
<defs>
<filter id="filter0_d_9_4" x="0.488525" y="0.5" width="348.011" height="169" filterUnits="userSpaceOnUse" color-interpolation-filters="sRGB">
<feFlood flood-opacity="0" result="BackgroundImageFix"/>
<feColorMatrix in="SourceAlpha" type="matrix" values="0 0 0 0 0 0 0 0 0 0 0 0 0 0 0 0 0 0 127 0" result="hardAlpha"/>
<feOffset dy="4"/>
<feGaussianBlur stdDeviation="2"/>
<feComposite in2="hardAlpha" operator="out"/>
<feColorMatrix type="matrix" values="0 0 0 0 0 0 0 0 0 0 0 0 0 0 0 0 0 0 0.25 0"/>
<feBlend mode="normal" in2="BackgroundImageFix" result="effect1_dropShadow_9_4"/>
<feBlend mode="normal" in="SourceGraphic" in2="effect1_dropShadow_9_4" result="shape"/>
</filter>
</defs>
</svg>
